HIERARCHY
ROOT hip
{
  OFFSET 0.00112043 5.09927 -9.65472
  CHANNELS 6 Xposition Yposition Zposition Zrotation Xrotation Yrotation
  JOINT abdomen
  {
    OFFSET 0 -1.186 -1.5018
    CHANNELS 3 Zrotation Xrotation Yrotation
    JOINT abdomen2
    {
      OFFSET 0 9.964 0.2134
      CHANNELS 3 Zrotation Xrotation Yrotation
      JOINT chest
      {
        OFFSET 0 13.134 -3.2573
        CHANNELS 3 Zrotation Xrotation Yrotation
        JOINT neck
        {
          OFFSET 0 20.686 -1.6905
          CHANNELS 3 Zrotation Xrotation Yrotation
          JOINT head
          {
            OFFSET 0 7.238 -0.1237
            CHANNELS 3 Zrotation Xrotation Yrotation
            End Site
            {
              OFFSET 0 0 0
            }
          }
        }
        JOINT lCollar
        {
          OFFSET 1.7069 20.075 5.0056
          CHANNELS 3 Zrotation Xrotation Yrotation
          JOINT lShldr
          {
            OFFSET 13.6458 -0.047 -4.849
            CHANNELS 3 Zrotation Xrotation Yrotation
            JOINT lForeArm
            {
              OFFSET 28.3255 -0.9759 2.2888
              CHANNELS 3 Zrotation Xrotation Yrotation
              JOINT lHand
              {
                OFFSET 22.1583 -0.53 10.8316
                CHANNELS 3 Zrotation Xrotation Yrotation
                JOINT lThumb1
                {
                  OFFSET 0.786 0.112 2.5817
                  CHANNELS 3 Zrotation Xrotation Yrotation
                  JOINT lThumb2
                  {
                    OFFSET 0.3601 -0.878 4.2331
                    CHANNELS 3 Zrotation Xrotation Yrotation
                    JOINT lThumb2_End
                    {
                      OFFSET 1.8127 -1.216 2.2227
                      CHANNELS 3 Zrotation Xrotation Yrotation
                      End Site
                      {
                        OFFSET 0.0181 -0.0122 0.0222
                      }
                    }
                  }
                }
                JOINT lCarpal1
                {
                  OFFSET 0.9571 1.114 1.7695
                  CHANNELS 3 Zrotation Xrotation Yrotation
                  JOINT lIndex1
                  {
                    OFFSET 4.1246 0.487 4.1451
                    CHANNELS 3 Zrotation Xrotation Yrotation
                    JOINT lIndex2
                    {
                      OFFSET 3.4052 -1.454 2.7682
                      CHANNELS 3 Zrotation Xrotation Yrotation
                      JOINT lIndex2_End
                      {
                        OFFSET 1.4531 -1.795 1.2713
                        CHANNELS 3 Zrotation Xrotation Yrotation
                        End Site
                        {
                          OFFSET 0.0145 -0.0179 0.0127
                        }
                      }
                    }
                  }
                  JOINT lMid1
                  {
                    OFFSET 5.6954 0.21 2.1184
                    CHANNELS 3 Zrotation Xrotation Yrotation
                    JOINT lMid2
                    {
                      OFFSET 3.9766 -1.54 2.3863
                      CHANNELS 3 Zrotation Xrotation Yrotation
                      JOINT lMid2_End
                      {
                        OFFSET 1.4042 -1.926 1.125
                        CHANNELS 3 Zrotation Xrotation Yrotation
                        End Site
                        {
                          OFFSET 0.014 -0.0193 0.0113
                        }
                      }
                    }
                  }
                }
                JOINT lCarpal2
                {
                  OFFSET 2.0956 0.66 -0.3894
                  CHANNELS 3 Zrotation Xrotation Yrotation
                  JOINT lRing1
                  {
                    OFFSET 5.0395 -0.09 2.4971
                    CHANNELS 3 Zrotation Xrotation Yrotation
                    JOINT lRing2
                    {
                      OFFSET 3.7921 -1.552 1.4806
                      CHANNELS 3 Zrotation Xrotation Yrotation
                      JOINT lRing2_End
                      {
                        OFFSET 1.4655 -1.808 0.9609
                        CHANNELS 3 Zrotation Xrotation Yrotation
                        End Site
                        {
                          OFFSET 0.0147 -0.0181 0.0096
                        }
                      }
                    }
                  }
                  JOINT lPinky1
                  {
                    OFFSET 4.9141 -1.269 0.3591
                    CHANNELS 3 Zrotation Xrotation Yrotation
                    JOINT lPinky2
                    {
                      OFFSET 3.1477 -1.685 0.8462
                      CHANNELS 3 Zrotation Xrotation Yrotation
                      JOINT lPinky2_End
                      {
                        OFFSET 0.8055 -1.585 0.7955
                        CHANNELS 3 Zrotation Xrotation Yrotation
                        End Site
                        {
                          OFFSET 0.0081 -0.0158 0.008
                        }
                      }
                    }
                  }
                }
              }
            }
          }
        }
        JOINT rCollar
        {
          OFFSET -1.7069 20.075 5.0056
          CHANNELS 3 Zrotation Xrotation Yrotation
          JOINT rShldr
          {
            OFFSET -13.6458 -0.047 -4.849
            CHANNELS 3 Zrotation Xrotation Yrotation
            JOINT rForeArm
            {
              OFFSET -28.3255 -0.9759 2.2888
              CHANNELS 3 Zrotation Xrotation Yrotation
              JOINT rHand
              {
                OFFSET -22.1583 -0.53 10.8316
                CHANNELS 3 Zrotation Xrotation Yrotation
                JOINT rThumb1
                {
                  OFFSET -0.786 0.112 2.5817
                  CHANNELS 3 Zrotation Xrotation Yrotation
                  JOINT rThumb2
                  {
                    OFFSET -0.3601 -0.878 4.2331
                    CHANNELS 3 Zrotation Xrotation Yrotation
                    JOINT rThumb2_End
                    {
                      OFFSET -1.8127 -1.216 2.2227
                      CHANNELS 3 Zrotation Xrotation Yrotation
                      End Site
                      {
                        OFFSET -0.0181 -0.0122 0.0222
                      }
                    }
                  }
                }
                JOINT rCarpal1
                {
                  OFFSET -0.9571 1.114 1.7695
                  CHANNELS 3 Zrotation Xrotation Yrotation
                  JOINT rIndex1
                  {
                    OFFSET -4.1246 0.487 4.1451
                    CHANNELS 3 Zrotation Xrotation Yrotation
                    JOINT rIndex2
                    {
                      OFFSET -3.4052 -1.454 2.7682
                      CHANNELS 3 Zrotation Xrotation Yrotation
                      JOINT rIndex2_End
                      {
                        OFFSET -1.4531 -1.795 1.2713
                        CHANNELS 3 Zrotation Xrotation Yrotation
                        End Site
                        {
                          OFFSET -0.0145 -0.018 0.0127
                        }
                      }
                    }
                  }
                  JOINT rMid1
                  {
                    OFFSET -5.6954 0.21 2.1184
                    CHANNELS 3 Zrotation Xrotation Yrotation
                    JOINT rMid2
                    {
                      OFFSET -3.9766 -1.54 2.3863
                      CHANNELS 3 Zrotation Xrotation Yrotation
                      JOINT rMid2_End
                      {
                        OFFSET -1.4042 -1.926 1.125
                        CHANNELS 3 Zrotation Xrotation Yrotation
                        End Site
                        {
                          OFFSET -0.014 -0.0193 0.0113
                        }
                      }
                    }
                  }
                }
                JOINT rCarpal2
                {
                  OFFSET -2.0956 0.66 -0.3894
                  CHANNELS 3 Zrotation Xrotation Yrotation
                  JOINT rRing1
                  {
                    OFFSET -5.0395 -0.09 2.4971
                    CHANNELS 3 Zrotation Xrotation Yrotation
                    JOINT rRing2
                    {
                      OFFSET -3.7921 -1.552 1.4806
                      CHANNELS 3 Zrotation Xrotation Yrotation
                      JOINT rRing2_End
                      {
                        OFFSET -1.4655 -1.808 0.9609
                        CHANNELS 3 Zrotation Xrotation Yrotation
                        End Site
                        {
                          OFFSET -0.0147 -0.0181 0.0096
                        }
                      }
                    }
                  }
                  JOINT rPinky1
                  {
                    OFFSET -4.9141 -1.269 0.3592
                    CHANNELS 3 Zrotation Xrotation Yrotation
                    JOINT rPinky2
                    {
                      OFFSET -3.1477 -1.685 0.8462
                      CHANNELS 3 Zrotation Xrotation Yrotation
                      JOINT rPinky2_End
                      {
                        OFFSET -0.8055 -1.585 0.7955
                        CHANNELS 3 Zrotation Xrotation Yrotation
                        End Site
                        {
                          OFFSET -0.0081 -0.0158 0.008
                        }
                      }
                    }
                  }
                }
              }
            }
          }
        }
      }
    }
  }
  JOINT lThigh
  {
    OFFSET 8.367 -8.2066 0.5982
    CHANNELS 3 Zrotation Xrotation Yrotation
    JOINT lShin
    {
      OFFSET 2.1923 -43.463 -0.4932
      CHANNELS 3 Zrotation Xrotation Yrotation
      JOINT lFoot
      {
        OFFSET 0.7333 -45.8593 -2.6451
        CHANNELS 3 Zrotation Xrotation Yrotation
        End Site
        {
          OFFSET 2.6618 -4.2699 12.3931
        }
      }
    }
  }
  JOINT rThigh
  {
    OFFSET -8.367 -8.2066 0.5982
    CHANNELS 3 Zrotation Xrotation Yrotation
    JOINT rShin
    {
      OFFSET -2.1923 -43.463 -0.4931
      CHANNELS 3 Zrotation Xrotation Yrotation
      JOINT rFoot
      {
        OFFSET -0.7333 -45.8593 -2.6451
        CHANNELS 3 Zrotation Xrotation Yrotation
        End Site
        {
          OFFSET -2.6618 -4.2699 12.3931
        }
      }
    }
  }
}
MOTION
Frames:	4
Frame Time:	0.0333333
0 91.7903 2.51682 0 0 -0 0 0 -0 0 0 -0 0 0 -0 0 0 -0 0 0 -0 0 0 -0 1.66051 0.0835086 5.75766 -0.0175111 0.895433 15.7816 7.95139e-016 -1.98785e-016 -0 5.46658e-016 -3.97569e-016 -0 5.96354e-016 0 -0 3.97569e-016 1.98785e-016 9.54166e-015 1.49089e-016 -3.97569e-016 -0 6.4605e-016 0 3.18055e-015 5.96354e-016 0 3.18055e-015 8.94531e-016 -1.98785e-016 6.36111e-015 6.4605e-016 0 3.18055e-015 5.96354e-016 0 3.18055e-015 8.94531e-016 -1.98785e-016 6.36111e-015 1.49089e-016 -3.97569e-016 -0 6.4605e-016 0 3.18055e-015 5.96354e-016 0 3.18055e-015 8.94531e-016 -1.98785e-016 6.36111e-015 6.4605e-016 0 3.18055e-015 5.96354e-016 0 3.18055e-015 8.94531e-016 -1.98785e-016 6.36111e-015 0 0 -0 -1.4496 0.0636048 -5.0245 -1.74811 1.20616 -16.8394 -1.19271e-015 1.98785e-016 -3.18055e-015 -3.97569e-016 1.98785e-016 -3.18055e-015 -2.98177e-016 1.98785e-016 -3.18055e-015 -2.98177e-016 3.97569e-016 -0 4.96962e-016 0 -6.36111e-015 -9.93923e-017 3.97569e-016 -0 -8.94531e-016 5.96354e-016 -0 -3.97569e-016 3.97569e-016 -0 -9.93923e-017 3.97569e-016 -0 -8.94531e-016 5.96354e-016 -0 -3.97569e-016 3.97569e-016 -0 4.96962e-016 0 -6.36111e-015 -9.93923e-017 3.97569e-016 -0 -8.94531e-016 5.96354e-016 -0 -3.97569e-016 3.97569e-016 -0 -9.93923e-017 3.97569e-016 -0 -8.94531e-016 5.96354e-016 -0 -3.97569e-016 3.97569e-016 -0 -4.66111 -0.998717 0.12318 0.00986924 1.54847 0.176523 4.65186 -0.572283 -0.254274 4.66111 -0.998765 -0.123176 -0.00986867 1.54869 -0.176537 -4.65186 -0.572453 0.25427 
1.44302 29.2425 33.7084 -7.01671e-015 7.01671e-015 180 -0.000200385 -0.157441 -0.0899167 -0.000647856 -0.314882 -0.179835 -0.000647855 -0.314883 -0.179835 -0.120649 0.187447 0.000203042 9.79094e-009 -0.1801 -1.1646e-007 -8.14982 -0.0493503 0.180773 -60.2026 -0.810231 -40.2999 -3.7414 2.99797 -17.194 -32.3755 0.536918 21.2379 -3.13953e-007 5.27333e-007 5.93521e-007 3.13953e-007 -5.27333e-007 -5.93521e-007 3.13953e-007 -5.27333e-007 -5.93521e-007 1.59028e-015 6.36111e-015 -3.18055e-015 -3.13953e-007 5.27333e-007 5.93521e-007 3.13953e-007 -5.27333e-007 -5.93521e-007 3.13953e-007 -5.27333e-007 -5.93521e-007 -3.13953e-007 5.27333e-007 5.93521e-007 3.13953e-007 -5.27333e-007 -5.93521e-007 3.13953e-007 -5.27333e-007 -5.93521e-007 1.59028e-015 6.36111e-015 -3.18055e-015 -3.13953e-007 5.27333e-007 5.93521e-007 3.13953e-007 -5.27333e-007 -5.93521e-007 3.13953e-007 -5.27333e-007 -5.93521e-007 -3.13953e-007 5.27333e-007 5.93521e-007 3.13953e-007 -5.27333e-007 -5.93521e-007 3.13953e-007 -5.27333e-007 -5.93521e-007 8.14631 -0.0495363 -0.183862 60.3595 -0.675653 41.0321 1.5093 2.44357 30.1854 32.4215 1.28802 -21.3532 -7.89741e-007 -1.04422e-006 1.09324e-006 -6.36111e-015 0 -9.54166e-015 -6.36111e-015 6.36111e-015 -0 -3.18055e-015 -6.36111e-015 3.18055e-015 -7.89741e-007 -1.04422e-006 1.09324e-006 -3.18055e-015 0 -3.18055e-015 -6.36111e-015 0 3.18055e-015 -7.89741e-007 -1.04422e-006 1.09324e-006 -3.18055e-015 0 -3.18055e-015 -6.36111e-015 0 3.18055e-015 -3.18055e-015 -6.36111e-015 3.18055e-015 -7.89741e-007 -1.04422e-006 1.09324e-006 -3.18055e-015 0 -3.18055e-015 -6.36111e-015 0 3.18055e-015 -7.89741e-007 -1.04422e-006 1.09324e-006 -3.18055e-015 0 -3.18055e-015 -6.36111e-015 0 3.18055e-015 34.4321 -63.2953 52.1853 159.616 33.7125 -158.318 -5.93636 72.1687 28.4059 -34.4515 -63.2917 -52.2039 -159.616 33.7119 158.315 5.92838 72.1697 -28.4048 
1.44302 29.2425 33.7084 -7.01671e-015 7.01671e-015 180 -0.000200385 -0.157441 -0.0899167 -0.000647856 -0.314882 -0.179835 -0.000647855 -0.314883 -0.179835 -0.120649 0.187447 0.000203042 -0.0835327 -0.361864 -0.0542657 -8.14982 -0.0493503 0.180773 -60.2026 -0.810232 -40.2999 -3.74762 2.99354 -17.0718 -32.3756 0.536936 21.2379 -6.06756e-007 1.02193e-006 1.15055e-006 5.44915e-006 3.59683e-006 -2.97618e-006 -2.80157e-007 5.27811e-006 -3.62576e-006 -1.59028e-015 -3.18055e-015 -3.18055e-015 -6.06756e-007 1.02193e-006 1.15055e-006 5.44915e-006 3.59683e-006 -2.97618e-006 -2.80157e-007 5.27811e-006 -3.62576e-006 -6.06756e-007 1.02193e-006 1.15055e-006 5.44915e-006 3.59683e-006 -2.97618e-006 -2.80157e-007 5.27811e-006 -3.62576e-006 -1.59028e-015 -3.18055e-015 -3.18055e-015 -6.06756e-007 1.02193e-006 1.15055e-006 5.44915e-006 3.59683e-006 -2.97618e-006 -2.80157e-007 5.27811e-006 -3.62576e-006 -6.06756e-007 1.02193e-006 1.15055e-006 5.44915e-006 3.59683e-006 -2.97618e-006 -2.80157e-007 5.27811e-006 -3.62576e-006 8.14631 -0.0495363 -0.183862 60.3595 -0.675653 41.0321 1.5093 2.44357 30.1854 32.4215 1.28802 -21.3532 -7.89741e-007 -1.04422e-006 1.09324e-006 -6.36111e-015 0 -9.54166e-015 -6.36111e-015 6.36111e-015 -0 -3.18055e-015 -6.36111e-015 3.18055e-015 -7.89741e-007 -1.04422e-006 1.09324e-006 -3.18055e-015 0 -3.18055e-015 -6.36111e-015 0 3.18055e-015 -7.89741e-007 -1.04422e-006 1.09324e-006 -3.18055e-015 0 -3.18055e-015 -6.36111e-015 0 3.18055e-015 -3.18055e-015 -6.36111e-015 3.18055e-015 -7.89741e-007 -1.04422e-006 1.09324e-006 -3.18055e-015 0 -3.18055e-015 -6.36111e-015 0 3.18055e-015 -7.89741e-007 -1.04422e-006 1.09324e-006 -3.18055e-015 0 -3.18055e-015 -6.36111e-015 0 3.18055e-015 34.4321 -63.2953 52.1853 159.616 33.7124 -158.318 -5.93634 72.1687 28.4059 -34.4515 -63.2917 -52.2039 -159.616 33.7119 158.315 5.92838 72.1697 -28.4048 
1.44302 29.2425 33.7084 -7.01671e-015 7.01671e-015 180 -0.000200385 -0.157441 -0.0899167 -0.000647856 -0.314882 -0.179835 -0.000647855 -0.314883 -0.179835 -0.120649 0.187447 0.000203042 -0.167268 -0.543606 -0.108816 -8.14982 -0.0493503 0.180773 -60.2026 -0.810232 -40.2999 -3.75383 2.98908 -16.9496 -32.3756 0.53694 21.2379 3.53113e-031 -6.36111e-015 3.18055e-015 3.12374e-007 -5.27565e-007 -5.94144e-007 -3.12374e-007 5.27565e-007 5.94144e-007 3.18055e-015 -6.36111e-015 -0 -6.36111e-015 -9.54166e-015 6.36111e-015 3.12374e-007 -5.27565e-007 -5.94144e-007 -3.12374e-007 5.27565e-007 5.94144e-007 -6.36111e-015 -9.54166e-015 6.36111e-015 3.12374e-007 -5.27565e-007 -5.94144e-007 -3.12374e-007 5.27565e-007 5.94144e-007 3.18055e-015 -6.36111e-015 -0 -6.36111e-015 -9.54166e-015 6.36111e-015 3.12374e-007 -5.27565e-007 -5.94144e-007 -3.12374e-007 5.27565e-007 5.94144e-007 -6.36111e-015 -9.54166e-015 6.36111e-015 3.12374e-007 -5.27565e-007 -5.94144e-007 -3.12374e-007 5.27565e-007 5.94144e-007 8.14631 -0.0495363 -0.183862 60.3595 -0.675653 41.0321 1.5093 2.44357 30.1854 32.4215 1.28802 -21.3532 -7.89741e-007 -1.04422e-006 1.09324e-006 -6.36111e-015 0 -9.54166e-015 -6.36111e-015 6.36111e-015 -0 -3.18055e-015 -6.36111e-015 3.18055e-015 -7.89741e-007 -1.04422e-006 1.09324e-006 -3.18055e-015 0 -3.18055e-015 -6.36111e-015 0 3.18055e-015 -7.89741e-007 -1.04422e-006 1.09324e-006 -3.18055e-015 0 -3.18055e-015 -6.36111e-015 0 3.18055e-015 -3.18055e-015 -6.36111e-015 3.18055e-015 -7.89741e-007 -1.04422e-006 1.09324e-006 -3.18055e-015 0 -3.18055e-015 -6.36111e-015 0 3.18055e-015 -7.89741e-007 -1.04422e-006 1.09324e-006 -3.18055e-015 0 -3.18055e-015 -6.36111e-015 0 3.18055e-015 34.4321 -63.2953 52.1853 159.616 33.7124 -158.318 -5.93634 72.1687 28.4059 -34.4515 -63.2917 -52.2039 -159.616 33.7119 158.315 5.92838 72.1697 -28.4048 
